<svg width="31" height="30" viewBox="0 0 31 30" fill="none" xmlns="http://www.w3.org/2000/svg">
<rect x="0.970703" width="30" height="30" rx="15" fill="#3BB77E"/>
<g clip-path="url(#clip0_6566_1030)">
<g clip-path="url(#clip1_6566_1030)">
<path d="M21.6875 11.7226C21.3262 11.8903 20.9133 11.9936 20.5262 12.0581C20.7198 12.0323 20.9907 11.6839 21.1069 11.5549C21.2746 11.3484 21.4165 11.1032 21.494 10.8452C21.5069 10.8194 21.5069 10.7936 21.494 10.7807C21.4682 10.7678 21.4552 10.7807 21.4294 10.7807C20.9907 11.0129 20.5391 11.1936 20.0488 11.3097C20.0101 11.3226 19.9843 11.3097 19.9585 11.2839C19.9198 11.2323 19.8811 11.1936 19.8423 11.1549C19.6359 10.9871 19.4165 10.8452 19.1714 10.742C18.8488 10.6129 18.4875 10.5484 18.1391 10.5742C17.8036 10.6 17.4682 10.6903 17.1714 10.8452C16.8746 11 16.6036 11.2194 16.3843 11.4903C16.1649 11.7613 15.9972 12.0839 15.9198 12.4323C15.8423 12.7678 15.8423 13.0903 15.894 13.4258C15.9069 13.4774 15.894 13.4903 15.8423 13.4774C13.9327 13.2065 12.3585 12.5355 11.0811 11.0774C11.0294 11.0129 10.9907 11.0129 10.952 11.0774C10.3972 11.9161 10.6681 13.2581 11.3649 13.9291C11.4552 14.0194 11.5585 14.1097 11.6617 14.1871C11.623 14.2 11.1585 14.1484 10.7456 13.9291C10.694 13.8903 10.6681 13.9161 10.6552 13.9807C10.6552 14.071 10.6552 14.1484 10.6681 14.2516C10.7714 15.1032 11.3649 15.8903 12.1649 16.1871C12.2552 16.2258 12.3714 16.2645 12.4746 16.2774C12.294 16.3161 12.1004 16.342 11.5714 16.3032C11.5069 16.2903 11.4811 16.329 11.5069 16.3807C11.894 17.4645 12.7456 17.7871 13.3907 17.9678C13.4811 17.9807 13.5585 17.9807 13.6488 18.0065C13.6488 18.0194 13.6359 18.0194 13.6359 18.0194C13.4294 18.342 12.694 18.5871 12.3456 18.7032C11.7262 18.9226 11.0423 19.0129 10.3843 18.9484C10.2811 18.9355 10.2552 18.9355 10.2294 18.9484C10.2036 18.9613 10.2294 18.9871 10.2552 19.0129C10.3843 19.1032 10.5262 19.1807 10.6681 19.2581C11.0811 19.4774 11.5198 19.6581 11.9714 19.7871C14.3198 20.4323 16.9778 19.9549 18.7456 18.2C20.1262 16.8323 20.6165 14.9355 20.6165 13.0258C20.6165 12.9484 20.7069 12.9097 20.7585 12.871C21.1198 12.6 21.4036 12.2774 21.6746 11.9161C21.7391 11.8387 21.7262 11.7613 21.7262 11.7355V11.7226C21.7262 11.6968 21.7391 11.6968 21.6875 11.7226Z" fill="white"/>
<path fill-rule="evenodd" clip-rule="evenodd" d="M13.6358 20.0324C13.6745 20.0324 14.6036 20.0324 13.6358 20.0324C13.6229 20.0324 13.7649 20.0324 13.6358 20.0324ZM13.6358 20.0324C13.4423 20.0324 13.6229 20.0324 13.6358 20.0324V20.0324ZM14.0229 20.0453C14.0229 20.0195 14.2294 20.0453 14.0229 20.0453C14.0229 20.0324 14.0487 20.0453 14.0229 20.0453ZM18.1004 10.6001C18.0874 10.613 18.0745 10.613 18.0487 10.6001C18.0616 10.6001 18.0874 10.6001 18.1004 10.6001Z" fill="white"/>
</g>
</g>
<defs>
<clipPath id="clip0_6566_1030">
<rect width="16" height="30" fill="white" transform="translate(7.9707)"/>
</clipPath>
<clipPath id="clip1_6566_1030">
<rect width="16" height="30" fill="white" transform="translate(7.9707)"/>
</clipPath>
</defs>
</svg>
