<svg width="31" height="30" viewBox="0 0 31 30" fill="none" xmlns="http://www.w3.org/2000/svg">
<rect x="0.970703" width="30" height="30" rx="15" fill="#3BB77E"/>
<g clip-path="url(#clip0_6566_1025)">
<g clip-path="url(#clip1_6566_1025)">
<path fill-rule="evenodd" clip-rule="evenodd" d="M14.4356 15.0516V20.7806C14.4356 20.858 14.5001 20.9355 14.5904 20.9355H16.7194C16.7968 20.9355 16.8743 20.8709 16.8743 20.7806V14.9484H18.4098C18.4872 14.9484 18.5517 14.8838 18.5646 14.8064L18.6936 13.0645C18.7065 12.9742 18.6291 12.8967 18.5388 12.8967H16.8614V11.658C16.8614 11.3613 17.0936 11.129 17.3904 11.129H18.5775C18.6549 11.129 18.7323 11.0645 18.7323 10.9742V9.23223C18.7323 9.15481 18.6678 9.07739 18.5775 9.07739H16.5646C15.3904 9.07739 14.4356 10.0322 14.4356 11.2064V12.8967H13.3775C13.3001 12.8967 13.2227 12.9613 13.2227 13.0516V14.8064C13.2227 14.8838 13.2872 14.9613 13.3775 14.9613H14.4356V15.0516Z" fill="white"/>
</g>
</g>
<defs>
<clipPath id="clip0_6566_1025">
<rect width="16" height="30" fill="white" transform="translate(7.9707)"/>
</clipPath>
<clipPath id="clip1_6566_1025">
<rect width="16" height="30" fill="white" transform="translate(7.9707)"/>
</clipPath>
</defs>
</svg>
