<svg width="31" height="30" viewBox="0 0 31 30" fill="none" xmlns="http://www.w3.org/2000/svg">
<rect x="0.970703" width="30" height="30" rx="15" fill="#3BB77E"/>
<g clip-path="url(#clip0_6566_1036)">
<g clip-path="url(#clip1_6566_1036)">
<path d="M19.2221 11.3354C18.8221 11.3354 18.4995 11.658 18.4995 12.058C18.4995 12.458 18.8221 12.7806 19.2221 12.7806C19.6221 12.7806 19.9447 12.458 19.9447 12.058C19.9447 11.658 19.6221 11.3354 19.2221 11.3354ZM15.9963 12.2645C14.3189 12.2645 12.9511 13.6322 12.9511 15.3096C12.9511 16.987 14.3189 18.3548 15.9963 18.3548C17.6737 18.3548 19.0414 16.987 19.0414 15.3096C19.0414 13.6322 17.6737 12.2645 15.9963 12.2645ZM15.9963 17.2709C14.9124 17.2709 14.0479 16.3935 14.0479 15.3225C14.0479 14.2386 14.9253 13.3741 15.9963 13.3741C17.0802 13.3741 17.9447 14.2515 17.9447 15.3225C17.9447 16.3935 17.0673 17.2709 15.9963 17.2709ZM22.1511 12.7806C22.1511 10.729 20.4866 9.06445 18.435 9.06445H13.5189C11.4673 9.06445 9.80273 10.729 9.80273 12.7806V17.6967C9.80273 19.7483 11.4673 21.4128 13.5189 21.4128H18.4221C20.4737 21.4128 22.1382 19.7483 22.1382 17.6967V12.7806H22.1511ZM20.9769 17.6838C20.9769 19.0903 19.8285 20.2386 18.4221 20.2386H13.5189C12.1124 20.2386 10.964 19.0903 10.964 17.6838V12.7806C10.964 11.3612 12.0995 10.2257 13.5189 10.2257H18.4221C19.8285 10.2257 20.9769 11.3741 20.9769 12.7806V17.6838Z" fill="white"/>
</g>
</g>
<defs>
<clipPath id="clip0_6566_1036">
<rect width="16" height="30" fill="white" transform="translate(7.9707)"/>
</clipPath>
<clipPath id="clip1_6566_1036">
<rect width="16" height="30" fill="white" transform="translate(7.9707)"/>
</clipPath>
</defs>
</svg>
