<svg width="31" height="30" viewBox="0 0 31 30" fill="none" xmlns="http://www.w3.org/2000/svg">
<rect x="0.970703" width="30" height="30" rx="15" fill="#3BB77E"/>
<g clip-path="url(#clip0_6566_1041)">
<g clip-path="url(#clip1_6566_1041)">
<path d="M16.7199 17.8128C16.0102 17.7612 15.7134 17.4128 15.1586 17.0774C14.9134 18.3677 14.6167 19.6193 13.9328 20.4709C13.7263 20.7161 13.3263 20.5999 13.3134 20.2774C13.2102 18.2128 13.9199 16.5741 14.2683 14.858C13.6102 13.7354 14.3457 11.4903 15.7521 12.0451C17.4812 12.729 14.2554 16.1999 16.4231 16.6386C18.6812 17.0774 19.6102 12.7161 18.2038 11.2967C16.1779 9.24509 12.3199 11.2451 12.7973 14.187C12.8876 14.7419 13.3521 14.9999 13.3005 15.5548C13.2618 15.9032 12.9134 16.0967 12.6038 15.9548C11.7134 15.5419 11.4296 14.6257 11.4683 13.4515C11.5457 11.2322 13.4683 9.6709 15.3908 9.45154C17.8296 9.18058 20.1134 10.3419 20.4231 12.6386C20.7844 15.2064 19.3263 18.0064 16.7199 17.8128Z" fill="white"/>
</g>
</g>
<defs>
<clipPath id="clip0_6566_1041">
<rect width="16" height="30" fill="white" transform="translate(7.9707)"/>
</clipPath>
<clipPath id="clip1_6566_1041">
<rect width="16" height="30" fill="white" transform="translate(7.9707)"/>
</clipPath>
</defs>
</svg>
