<svg width="83" height="34" viewBox="0 0 83 34" fill="none" xmlns="http://www.w3.org/2000/svg">
<path d="M14.848 22.472C15.352 22.472 15.772 22.64 16.108 22.976C16.468 23.312 16.648 23.732 16.648 24.236C16.648 24.74 16.468 25.16 16.108 25.496C15.772 25.832 15.352 26 14.848 26H2.752C2.224 26 1.78 25.832 1.42 25.496C1.084 25.136 0.916 24.692 0.916 24.164V2.636C0.916 2.108 1.096 1.676 1.456 1.34C1.816 0.979998 2.284 0.799998 2.86 0.799998C3.34 0.799998 3.76 0.979998 4.12 1.34C4.504 1.676 4.696 2.108 4.696 2.636V23.084L3.94 22.472H14.848ZM38.5273 16.532C38.5273 18.452 38.1073 20.156 37.2673 21.644C36.4273 23.108 35.2873 24.26 33.8473 25.1C32.4073 25.94 30.7873 26.36 28.9873 26.36C27.1873 26.36 25.5673 25.94 24.1273 25.1C22.6873 24.26 21.5353 23.108 20.6713 21.644C19.8313 20.156 19.4113 18.452 19.4113 16.532C19.4113 14.588 19.8313 12.884 20.6713 11.42C21.5353 9.932 22.6873 8.768 24.1273 7.928C25.5673 7.064 27.1873 6.632 28.9873 6.632C30.7873 6.632 32.4073 7.064 33.8473 7.928C35.2873 8.768 36.4273 9.932 37.2673 11.42C38.1073 12.884 38.5273 14.588 38.5273 16.532ZM34.9273 16.532C34.9273 15.212 34.6633 14.072 34.1353 13.112C33.6073 12.128 32.8873 11.36 31.9753 10.808C31.0873 10.232 30.0913 9.944 28.9873 9.944C27.8833 9.944 26.8753 10.232 25.9633 10.808C25.0513 11.36 24.3313 12.128 23.8033 13.112C23.2753 14.072 23.0113 15.212 23.0113 16.532C23.0113 17.804 23.2753 18.932 23.8033 19.916C24.3313 20.9 25.0513 21.668 25.9633 22.22C26.8753 22.772 27.8833 23.048 28.9873 23.048C30.0913 23.048 31.0873 22.772 31.9753 22.22C32.8873 21.668 33.6073 20.9 34.1353 19.916C34.6633 18.932 34.9273 17.804 34.9273 16.532ZM50.486 6.632C51.518 6.632 52.466 6.8 53.33 7.136C54.194 7.472 54.938 7.904 55.562 8.432C56.21 8.936 56.714 9.464 57.074 10.016C57.434 10.568 57.614 11.048 57.614 11.456L56.786 11.492V8.612C56.786 8.108 56.954 7.676 57.29 7.316C57.626 6.956 58.058 6.776 58.586 6.776C59.114 6.776 59.546 6.956 59.882 7.316C60.218 7.652 60.386 8.084 60.386 8.612V24.488C60.386 26.528 59.954 28.184 59.09 29.456C58.226 30.752 57.074 31.7 55.634 32.3C54.218 32.9 52.658 33.2 50.954 33.2C50.354 33.2 49.646 33.116 48.83 32.948C48.014 32.804 47.258 32.624 46.562 32.408C45.89 32.192 45.422 31.976 45.158 31.76C44.606 31.472 44.234 31.136 44.042 30.752C43.874 30.368 43.874 29.984 44.042 29.6C44.282 29.072 44.606 28.748 45.014 28.628C45.422 28.508 45.89 28.544 46.418 28.736C46.658 28.808 47.03 28.94 47.534 29.132C48.038 29.324 48.602 29.492 49.226 29.636C49.85 29.804 50.438 29.888 50.99 29.888C52.91 29.888 54.35 29.444 55.31 28.556C56.294 27.668 56.786 26.456 56.786 24.92V21.68L57.182 21.932C57.11 22.436 56.882 22.952 56.498 23.48C56.138 23.984 55.658 24.452 55.058 24.884C54.458 25.316 53.762 25.676 52.97 25.964C52.202 26.228 51.41 26.36 50.594 26.36C48.89 26.36 47.366 25.94 46.022 25.1C44.678 24.236 43.61 23.072 42.818 21.608C42.026 20.12 41.63 18.416 41.63 16.496C41.63 14.576 42.026 12.884 42.818 11.42C43.61 9.932 44.666 8.768 45.986 7.928C47.33 7.064 48.83 6.632 50.486 6.632ZM51.026 9.944C49.85 9.944 48.818 10.232 47.93 10.808C47.042 11.384 46.346 12.164 45.842 13.148C45.338 14.132 45.086 15.248 45.086 16.496C45.086 17.744 45.338 18.86 45.842 19.844C46.346 20.828 47.042 21.608 47.93 22.184C48.818 22.76 49.85 23.048 51.026 23.048C52.202 23.048 53.234 22.772 54.122 22.22C55.01 21.644 55.706 20.864 56.21 19.88C56.714 18.872 56.966 17.744 56.966 16.496C56.966 15.248 56.714 14.132 56.21 13.148C55.706 12.14 55.01 11.36 54.122 10.808C53.234 10.232 52.202 9.944 51.026 9.944ZM82.8242 16.532C82.8242 18.452 82.4042 20.156 81.5642 21.644C80.7242 23.108 79.5842 24.26 78.1442 25.1C76.7042 25.94 75.0842 26.36 73.2842 26.36C71.4842 26.36 69.8642 25.94 68.4242 25.1C66.9842 24.26 65.8322 23.108 64.9682 21.644C64.1282 20.156 63.7082 18.452 63.7082 16.532C63.7082 14.588 64.1282 12.884 64.9682 11.42C65.8322 9.932 66.9842 8.768 68.4242 7.928C69.8642 7.064 71.4842 6.632 73.2842 6.632C75.0842 6.632 76.7042 7.064 78.1442 7.928C79.5842 8.768 80.7242 9.932 81.5642 11.42C82.4042 12.884 82.8242 14.588 82.8242 16.532ZM79.2242 16.532C79.2242 15.212 78.9602 14.072 78.4322 13.112C77.9042 12.128 77.1842 11.36 76.2722 10.808C75.3842 10.232 74.3882 9.944 73.2842 9.944C72.1802 9.944 71.1722 10.232 70.2602 10.808C69.3482 11.36 68.6282 12.128 68.1002 13.112C67.5722 14.072 67.3082 15.212 67.3082 16.532C67.3082 17.804 67.5722 18.932 68.1002 19.916C68.6282 20.9 69.3482 21.668 70.2602 22.22C71.1722 22.772 72.1802 23.048 73.2842 23.048C74.3882 23.048 75.3842 22.772 76.2722 22.22C77.1842 21.668 77.9042 20.9 78.4322 19.916C78.9602 18.932 79.2242 17.804 79.2242 16.532Z" fill="#253D4E"/>
</svg>
