<svg width="31" height="39" viewBox="0 0 31 39" fill="none" xmlns="http://www.w3.org/2000/svg">
<g clip-path="url(#clip0_6566_1001)">
<g clip-path="url(#clip1_6566_1001)">
<path d="M24.049 23.084C23.4348 22.4445 22.694 22.1026 21.9088 22.1026C21.13 22.1026 20.3829 22.4382 19.7434 23.0777L17.7426 25.0722C17.578 24.9835 17.4133 24.9012 17.255 24.8189C17.0271 24.7049 16.8118 24.5973 16.6282 24.4833C14.754 23.293 13.0508 21.7417 11.4172 19.7345C10.6257 18.7341 10.0939 17.892 9.70765 17.0372C10.2269 16.5624 10.7081 16.0685 11.1766 15.5936C11.3539 15.4163 11.5312 15.2327 11.7085 15.0554C13.0381 13.7258 13.0381 12.0035 11.7085 10.6739L9.97992 8.94532C9.78363 8.74904 9.58102 8.54642 9.39107 8.34381C9.01116 7.95124 8.61227 7.54601 8.20071 7.16611C7.58653 6.55827 6.85205 6.23535 6.07959 6.23535C5.30712 6.23535 4.55998 6.55827 3.92681 7.16611C3.92047 7.17244 3.92047 7.17244 3.91414 7.17878L1.76136 9.35055C0.950904 10.161 0.488689 11.1488 0.387382 12.2948C0.235421 14.1437 0.779948 15.8659 1.19784 16.9929C2.22358 19.7599 3.75585 22.3242 6.04159 25.0722C8.81488 28.3837 12.1517 30.9986 15.9634 32.8412C17.4197 33.5313 19.3635 34.3481 21.5353 34.4874C21.6682 34.4938 21.8075 34.5001 21.9342 34.5001C23.3968 34.5001 24.6252 33.9746 25.5876 32.9298C25.5939 32.9172 25.6066 32.9108 25.6129 32.8982C25.9421 32.4993 26.322 32.1384 26.7209 31.7521C26.9932 31.4925 27.2718 31.2203 27.5441 30.9353C28.1709 30.2832 28.5002 29.5234 28.5002 28.7446C28.5002 27.9594 28.1646 27.206 27.5251 26.5728L24.049 23.084ZM26.3157 29.7513C26.3094 29.7513 26.3094 29.7576 26.3157 29.7513C26.0688 30.0172 25.8155 30.2578 25.5432 30.5238C25.1317 30.9163 24.7138 31.3279 24.3212 31.7901C23.6817 32.4739 22.9283 32.7969 21.9405 32.7969C21.8455 32.7969 21.7442 32.7969 21.6492 32.7905C19.7687 32.6702 18.0212 31.9357 16.7105 31.3089C13.1268 29.574 9.97992 27.111 7.36492 23.9895C5.20581 21.3871 3.76218 18.9811 2.80609 16.3977C2.21725 14.8211 2.00197 13.5928 2.09694 12.4341C2.16026 11.6933 2.44519 11.0791 2.97072 10.5536L5.12983 8.39446C5.44008 8.1032 5.76933 7.94491 6.09225 7.94491C6.49115 7.94491 6.81406 8.18552 7.01668 8.38813C7.02301 8.39446 7.02934 8.40079 7.03567 8.40713C7.42191 8.76803 7.78915 9.1416 8.17538 9.5405C8.37166 9.74312 8.57428 9.94573 8.77689 10.1547L10.5054 11.8832C11.1766 12.5544 11.1766 13.1749 10.5054 13.8461C10.3218 14.0297 10.1445 14.2133 9.96092 14.3906C9.42906 14.9351 8.92252 15.4417 8.37166 15.9355C8.359 15.9482 8.34634 15.9545 8.34 15.9672C7.79548 16.5117 7.89678 17.0436 8.01076 17.4045C8.01709 17.4235 8.02342 17.4425 8.02975 17.4615C8.4793 18.5505 9.11247 19.5763 10.0749 20.7983L10.0812 20.8046C11.8288 22.9574 13.6713 24.6353 15.7038 25.9206C15.9634 26.0852 16.2293 26.2182 16.4826 26.3448C16.7105 26.4588 16.9258 26.5665 17.1094 26.6804C17.1347 26.6931 17.1601 26.7121 17.1854 26.7248C17.4007 26.8324 17.6033 26.883 17.8122 26.883C18.3378 26.883 18.667 26.5538 18.7747 26.4462L20.9401 24.2807C21.1554 24.0654 21.4973 23.8058 21.8962 23.8058C22.2887 23.8058 22.6117 24.0528 22.8079 24.268C22.8143 24.2744 22.8143 24.2744 22.8206 24.2807L26.3094 27.7695C26.9615 28.4153 26.9615 29.0801 26.3157 29.7513Z" fill="black"/>
<path d="M16.5512 11.6361C18.2102 11.9147 19.7171 12.6998 20.9201 13.9029C22.1231 15.1059 22.9019 16.6128 23.1869 18.2717C23.2565 18.6896 23.6174 18.9809 24.029 18.9809C24.0796 18.9809 24.124 18.9746 24.1746 18.9682C24.6432 18.8922 24.9534 18.449 24.8774 17.9805C24.5355 15.9733 23.5858 14.1435 22.1358 12.6935C20.6859 11.2435 18.856 10.2938 16.8488 9.95187C16.3803 9.87589 15.9434 10.1861 15.8611 10.6484C15.7788 11.1106 16.0827 11.5601 16.5512 11.6361Z" fill="black"/>
<path d="M30.3053 17.7336C29.7417 14.4285 28.1841 11.4209 25.7907 9.02754C23.3974 6.63415 20.3898 5.07655 17.0846 4.51303C16.6224 4.43072 16.1855 4.7473 16.1032 5.20952C16.0273 5.67807 16.3375 6.11495 16.8061 6.19727C19.7566 6.69747 22.4476 8.09678 24.5877 10.2306C26.7278 12.3707 28.1208 15.0617 28.621 18.0122C28.6907 18.4301 29.0516 18.7214 29.4631 18.7214C29.5138 18.7214 29.5581 18.715 29.6088 18.7087C30.071 18.6391 30.3876 18.1958 30.3053 17.7336Z" fill="black"/>
</g>
</g>
<defs>
<clipPath id="clip0_6566_1001">
<rect width="30" height="38" fill="white" transform="translate(0.339844 0.5)"/>
</clipPath>
<clipPath id="clip1_6566_1001">
<rect width="30" height="30" fill="white" transform="translate(0.339844 4.5)"/>
</clipPath>
</defs>
</svg>
