<svg width="37" height="31" viewBox="0 0 37 31" fill="none" xmlns="http://www.w3.org/2000/svg">
<path d="M32.3584 16.386V14.25C32.3584 10.6696 30.9361 7.2358 28.4044 4.70406C25.8726 2.17232 22.4389 0.75 18.8584 0.75C15.278 0.75 11.8442 2.17232 9.31251 4.70406C6.78076 7.2358 5.35845 10.6696 5.35845 14.25V16.386C3.78519 17.0787 2.49765 18.2909 1.71138 19.8196C0.925111 21.3483 0.687838 23.1006 1.03928 24.7834C1.39073 26.4661 2.30956 27.977 3.64195 29.0632C4.97435 30.1494 6.63943 30.7449 8.35845 30.75H11.3584V15.75H8.35845V14.25C8.35845 11.4652 9.46469 8.7945 11.4338 6.82538C13.403 4.85625 16.0737 3.75 18.8584 3.75C21.6432 3.75 24.3139 4.85625 26.2831 6.82538C28.2522 8.7945 29.3584 11.4652 29.3584 14.25V15.75H26.3584V27.75H20.3584V30.75H29.3584C31.0775 30.7449 32.7425 30.1494 34.0749 29.0632C35.4073 27.977 36.3262 26.4661 36.6776 24.7834C37.0291 23.1006 36.7918 21.3483 36.0055 19.8196C35.2192 18.2909 33.9317 17.0787 32.3584 16.386ZM8.35845 27.75C7.16497 27.75 6.02038 27.2759 5.17647 26.432C4.33255 25.5881 3.85845 24.4435 3.85845 23.25C3.85845 22.0565 4.33255 20.9119 5.17647 20.068C6.02038 19.2241 7.16497 18.75 8.35845 18.75V27.75ZM29.3584 27.75V18.75C30.5519 18.75 31.6965 19.2241 32.5404 20.068C33.3843 20.9119 33.8584 22.0565 33.8584 23.25C33.8584 24.4435 33.3843 25.5881 32.5404 26.432C31.6965 27.2759 30.5519 27.75 29.3584 27.75Z" fill="#253D4E"/>
</svg>
